# xmcd
#
# Track frame offsets:
#	150
#	16550
#	32242
#	45748
#	56824
#	68784
#	85195
#	98104
#	113466
#	125519
#	142823
#	160893
#	178645
#	196777
#	212181
#	227916
#	245697
#
# Disc length: 3458 seconds
# Revision: 0
# Processed by: cddbd v1.5.2PL0 Copyright (c) Steve Scherf et al.
# Submitted via: dBpowerAMP V12.0
#
DISCID=e10d8011
DTITLE=Oak Ridge Boys, The - Original Greatest Hits
DYEAR=2015
DGENRE=
TTITLE0=I'll Be True To You
TTITLE1=Sail Away
TTITLE2=Leaving Louisiana In The Broad Daylight
TTITLE3=Trying To Love Two Women
TTITLE4=Elvira (single edit)
TTITLE5=(I'm Settin') Fancy Free
TTITLE6=Bobbie Sue
TTITLE7=I Wish You Could Have Turned My Head (And Left My Heart Alone)
TTITLE8=American Made
TTITLE9=Love Song
TTITLE10=I Guess It Never Hurts To Hurt Sometimes
TTITLE11=Everyday
TTITLE12=Make My Life With You
TTITLE13=Little Things
TTITLE14=Touch A Hand, Make A Friend
TTITLE15=It Takes A Little Rain (To Make Love Grow)
TTITLE16=This Crazy Love
EXTD=
EXTT0=
EXTT1=
EXTT2=
EXTT3=
EXTT4=
EXTT5=
EXTT6=
EXTT7=
EXTT8=
EXTT9=
EXTT10=
EXTT11=
EXTT12=
EXTT13=
EXTT14=
EXTT15=
EXTT16=
PLAYORDER=
